<svg xmlns="http://www.w3.org/2000/svg" viewBox="0 0 490 448"><defs><style>.a{fill:#004a75;}</style></defs><path class="a" d="M405.91,5.89,299.39,219.22a10.74,10.74,0,0,0,0,9.54L405.91,442.09a10.65,10.65,0,0,0,9.52,5.91h63.92a10.66,10.66,0,0,0,9.52-15.42L384.73,224,488.87,15.47a10.9,10.9,0,0,0,1.13-4.8A10.68,10.68,0,0,0,479.35,0H415.43A10.66,10.66,0,0,0,405.91,5.89Z"/><path class="a" d="M107.64,5.89,1.12,219.22a10.74,10.74,0,0,0,0,9.54L107.64,442.09a10.65,10.65,0,0,0,9.53,5.91h63.91a10.65,10.65,0,0,0,9.52-15.42L86.47,224,190.6,15.47a10.76,10.76,0,0,0,1.13-4.78A10.71,10.71,0,0,0,181.08,0H117.16A10.66,10.66,0,0,0,107.64,5.89Z"/><path class="a" d="M256.78,5.89,150.25,219.22a10.74,10.74,0,0,0,0,9.54L256.78,442.09A10.63,10.63,0,0,0,266.3,448h63.91a10.66,10.66,0,0,0,9.53-15.42L235.6,224,339.74,15.47a10.89,10.89,0,0,0,1.13-4.78A10.71,10.71,0,0,0,330.21,0H266.3A10.65,10.65,0,0,0,256.78,5.89Z"/></svg>