<svg id="Layer_1" data-name="Layer 1" xmlns="http://www.w3.org/2000/svg" viewBox="0 0 60 60"><defs><style>.cls-1{fill:#dcdcdc;}.cls-2{fill:#939393;}.cls-3{fill:#c4c4c4;}.cls-4{fill:none;}</style></defs><title>fcLogoBW-18-06-12</title><rect width="60" height="60"/><rect class="cls-1" width="60" height="60"/><polygon class="cls-2" points="59 0 59 1 58 1 58 58 1 58 1 59 0 59 0 60 58 60 58 60 59 60 60 60 60 60 60 59 60 58 60 0 59 0"/><rect x="2" y="2" width="56" height="56"/><polygon class="cls-3" points="56.2 30.8 31.5 6.1 31.5 6.1 29.4 4 4 29.4 6.1 31.5 24.5 13.2 49.1 37.9 56.2 30.8"/><path class="cls-3" d="M21.5,38.1H38v5.5H28.9v5.7h8.7v5.5H28.9V66H21.5Z" transform="translate(-10 -10)"/><path class="cls-3" d="M54.7,65.6l-2.4.6H49.9a12.3,12.3,0,0,1-3.9-.6,8.9,8.9,0,0,1-3.1-1.9,10.3,10.3,0,0,1-2-3.2,12.5,12.5,0,0,1-.7-4.5,12.9,12.9,0,0,1,.6-4,9.2,9.2,0,0,1,1.8-3.2,8.3,8.3,0,0,1,3.1-2,10.8,10.8,0,0,1,4.2-.8h1.7l1.4.3,1,.3.6.2-.3,4.3-.6-.3-.9-.4-1.1-.3H50.5a4.2,4.2,0,0,0-3.7,1.6,7,7,0,0,0-1.2,4.4,9.9,9.9,0,0,0,.3,2.4,7.7,7.7,0,0,0,1,1.8,4.3,4.3,0,0,0,1.7,1.3,4.8,4.8,0,0,0,2.2.4,6.1,6.1,0,0,0,2.4-.4l1.3-.7Z" transform="translate(-10 -10)"/><line class="cls-4" x1="25.5" y1="60.1" x2="25.5" y2="60.1"/></svg>