<svg id="Layer_1" data-name="Layer 1" xmlns="http://www.w3.org/2000/svg" viewBox="0 0 60 60"><defs><style>.cls-1{fill:#fdd682;}.cls-2{fill:#c1880e;}.cls-3{fill:#fff;}.cls-4{fill:#ffb411;}.cls-5{fill:none;}</style></defs><rect width="60" height="60"/><rect class="cls-1" width="60" height="60"/><polygon class="cls-2" points="59 0 59 1 58 1 58 58 1 58 1 59 0 59 0 60 58 60 58 60 59 60 60 60 60 60 60 59 60 58 60 0 59 0"/><rect class="cls-3" x="2" y="2" width="56" height="56"/><polygon class="cls-4" points="56.2 30.8 31.5 6.1 31.5 6.1 29.4 4 4 29.4 6.1 31.5 24.5 13.2 49.1 37.9 56.2 30.8"/><path class="cls-4" d="M11.5,28.1H28v5.5H18.9v5.7h8.7v5.5H18.9V56H11.5Z"/><path class="cls-4" d="M44.7,55.6l-2.4.6H39.9a12.31,12.31,0,0,1-3.9-.6,8.86,8.86,0,0,1-3.1-1.9,10.15,10.15,0,0,1-2-3.2,12.51,12.51,0,0,1-.7-4.5,12.89,12.89,0,0,1,.6-4,9.13,9.13,0,0,1,1.8-3.2,8.36,8.36,0,0,1,3.1-2,10.78,10.78,0,0,1,4.2-.8h1.7l1.4.3,1,.3.6.2-.3,4.3-.6-.3-.9-.4-1.1-.3H40.5a4.2,4.2,0,0,0-3.7,1.6,7,7,0,0,0-1.2,4.4,9.68,9.68,0,0,0,.3,2.4,7.73,7.73,0,0,0,1,1.8,4.26,4.26,0,0,0,1.7,1.3,4.89,4.89,0,0,0,2.2.4,6.15,6.15,0,0,0,2.4-.4l1.3-.7Z"/><line class="cls-5" x1="25.5" y1="60.1" x2="25.5" y2="60.1"/></svg>