<svg xmlns="http://www.w3.org/2000/svg" viewBox="0 0 64 64"><defs><style>.a{fill:#202020;}.b{fill:#fdd682;}.c{fill:#c1880e;}.d{fill:#ffb411;}.e{fill:none;}</style></defs><rect class="a" width="64" height="64"/><rect x="2" y="2" width="60" height="60"/><rect class="b" x="2" y="2" width="60" height="60"/><polygon class="c" points="61 2 61 3 60 3 60 60 3 60 3 61 2 61 2 62 60 62 60 62 61 62 62 62 62 62 62 61 62 60 62 2 61 2"/><rect x="4" y="4" width="56" height="56"/><polygon class="d" points="58.2 32.8 33.51 8.12 33.51 8.12 31.39 6 6 31.39 8.12 33.51 26.45 15.17 51.14 39.86 58.2 32.8"/><path class="d" d="M21.52,38.08H38V43.6H28.88v5.68H37.6V54.8H28.88V66H21.52Z" transform="translate(-8 -8)"/><path class="d" d="M54.74,65.58a16.66,16.66,0,0,1-2.48.57,14.75,14.75,0,0,1-2.34.19A11.72,11.72,0,0,1,46,65.71a8.12,8.12,0,0,1-3.08-1.92,9,9,0,0,1-2-3.21,12.74,12.74,0,0,1-.72-4.49,12.46,12.46,0,0,1,.61-4,8.7,8.7,0,0,1,1.84-3.17,8.42,8.42,0,0,1,3-2.07,11.29,11.29,0,0,1,4.23-.74,13.34,13.34,0,0,1,1.75.11c.53.08,1,.17,1.4.27s.74.2,1,.29a5.31,5.31,0,0,1,.57.23l-.28,4.31a5.87,5.87,0,0,0-.61-.34,6.48,6.48,0,0,0-.9-.36c-.33-.11-.7-.21-1.09-.3a6,6,0,0,0-1.2-.12,4.42,4.42,0,0,0-3.74,1.55,7.15,7.15,0,0,0-1.19,4.44,8.09,8.09,0,0,0,.33,2.35,5.51,5.51,0,0,0,1,1.89,4.64,4.64,0,0,0,1.62,1.25,5.18,5.18,0,0,0,2.2.45,6,6,0,0,0,2.39-.42A9.76,9.76,0,0,0,54.51,61Z" transform="translate(-8 -8)"/><line class="e" x1="27.47" y1="62.14" x2="27.47" y2="62.14"/></svg>