<?xml version="1.0" encoding="utf-8"?>
<!-- Generator: Adobe Illustrator 24.1.2, SVG Export Plug-In . SVG Version: 6.00 Build 0)  -->
<svg version="1.1" id="Layer_1" xmlns="http://www.w3.org/2000/svg" xmlns:xlink="http://www.w3.org/1999/xlink" x="0px" y="0px"
	 viewBox="0 0 24 18" style="enable-background:new 0 0 24 18;" xml:space="preserve">
<style type="text/css">
	.st0{fill:#0072BC;}
</style>
<path class="st0" d="M12.1,0c-3,0-5.6,1.6-7,4.1c-2.8,0.5-5,2.9-5,5.9c0,3.3,2.7,6,6,6h3v-2h-3c-2.2,0-4-1.8-4-4
	c0-2,1.4-3.6,3.3-3.9l0.9-0.2l0.5-0.8C7.9,3.2,9.9,2,12.1,2c2.8,0,5.2,1.9,5.8,4.6l0.3,1.3l1.3,0.2C21,8.3,22,9.6,22,11
	c0,1.7-1.3,3-3,3h-4v2h4c2.8,0,5-2.2,5-5c0.1-2.5-1.7-4.6-4.1-4.9C19,2.6,15.9,0,12.1,0z M12.1,5.7l-4,5.3h3v7h2v-7h3L12.1,5.7z"/>
</svg>
