<svg id="Layer_1" data-name="Layer 1" xmlns="http://www.w3.org/2000/svg" viewBox="0 0 50 50"><defs><style>.cls-1,.cls-2{fill:none;}.cls-1{stroke:#fff;stroke-linecap:round;stroke-miterlimit:10;stroke-width:2px;}.cls-3{fill:#fff;}</style></defs><circle class="cls-1" cx="25" cy="25" r="24"/><rect class="cls-2" width="50" height="50"/><path class="cls-3" d="M29.93,35.53c-.14-1.61-.09-2.74-.09-4.21.73-.38,2-2.83,2.26-4.89.58-.05,1.48-.61,1.75-2.82a2.07,2.07,0,0,0-.77-2.06C34,18.74,36,10.05,29.49,9.15,28.82,8,27.12,7.39,24.91,7.39c-8.86.16-9.93,6.69-8,14.16a2,2,0,0,0-.78,2.06c.27,2.21,1.17,2.77,1.75,2.82.22,2.06,1.58,4.51,2.31,4.89a40.22,40.22,0,0,1-.09,4.21c-1.26,3.39-7.74,3.65-11.47,6.92A24.44,24.44,0,0,0,25.56,49.2c6.68,0,14.53-5.28,15.84-6.72C37.69,39.19,31.2,38.93,29.93,35.53Z"/></svg>