<svg xmlns="http://www.w3.org/2000/svg" viewBox="0 0 980.02 980"><defs><style>.a{fill:#404040;}</style></defs><path class="a" d="M538.7,500,980.5,58.2A31.88,31.88,0,0,0,990,35.9a25.62,25.62,0,0,0-26-26,31.83,31.83,0,0,0-22.2,9.5L500,461.3,58.2,19.5A31.83,31.83,0,0,0,36,10a26,26,0,0,0-18.5,7.5A25.66,25.66,0,0,0,10,36a32,32,0,0,0,9.5,22.2L461.3,500,19.5,941.8A31.87,31.87,0,0,0,10,962.7a26.21,26.21,0,0,0,7.4,19.8,25.91,25.91,0,0,0,18.5,7.4,31.41,31.41,0,0,0,22.2-9.5L500,538.7,941.8,980.5c11.3,11.3,30.4,12.2,40.7,2,10.7-10.7,9.8-28.9-2-40.7Z" transform="translate(-9.98 -9.9)"/></svg>