<svg xmlns="http://www.w3.org/2000/svg" viewBox="0 0 980.05 980.01"><defs><style>.a{fill:#c00000;}</style></defs><path class="a" d="M528.72,490.1,970.52,48.3A31.89,31.89,0,0,0,980,26,25.62,25.62,0,0,0,954.79,0H954a31.83,31.83,0,0,0-22.2,9.5L490,451.4,48.22,9.6A31.83,31.83,0,0,0,26,.1,26,26,0,0,0,7.52,7.6,25.67,25.67,0,0,0,0,26.1a32,32,0,0,0,9.5,22.2l441.8,441.8L9.52,931.9A31.88,31.88,0,0,0,0,952.8a26.2,26.2,0,0,0,7.4,19.8,25.91,25.91,0,0,0,18.5,7.4,31.4,31.4,0,0,0,22.2-9.5L490,528.8l441.8,441.8c11.3,11.3,30.4,12.2,40.7,2,10.7-10.7,9.8-28.9-2-40.7Z" transform="translate(0.02 0)"/></svg>